PathFileType	4	(X/Y/Z)	 s09c0403.trc
DataRate	CameraRate	NumFrames	NumMarkers	Units	OrigDataRate	OrigDataStartFrame	OrigNumFrames
200	200	5	50	mm	200	1	2000
Frame#	Time	racr			lacr			c7			jug			rlel			rdr			llel			ldr			s2			lic			ric			lasi			rasi			rpsi			lpsi			rgt			lgt			rth1			rth2			rth3			rth4			rlfc			rmfc			rsh1			rsh2			rsh3			rsh4			rlmal			rmmal			rcal			rtoe			rmt5			lth1			lth2			lth4			lth3			llfc			lmfc			llmal			lmmal			lcal			lmt5			lsh1			lsh2			lsh3			lsh4			ltoe			SBIKE			LBIKE			RBIKE			
		X1	Y1	Z1	X2	Y2	Z2	X3	Y3	Z3	X4	Y4	Z4	X5	Y5	Z5	X6	Y6	Z6	X7	Y7	Z7	X8	Y8	Z8	X9	Y9	Z9	X10	Y10	Z10	X11	Y11	Z11	X12	Y12	Z12	X13	Y13	Z13	X14	Y14	Z14	X15	Y15	Z15	X16	Y16	Z16	X17	Y17	Z17	X18	Y18	Z18	X19	Y19	Z19	X20	Y20	Z20	X21	Y21	Z21	X22	Y22	Z22	X23	Y23	Z23	X24	Y24	Z24	X25	Y25	Z25	X26	Y26	Z26	X27	Y27	Z27	X28	Y28	Z28	X29	Y29	Z29	X30	Y30	Z30	X31	Y31	Z31	X32	Y32	Z32	X33	Y33	Z33	X34	Y34	Z34	X35	Y35	Z35	X36	Y36	Z36	X37	Y37	Z37	X38	Y38	Z38	X39	Y39	Z39	X40	Y40	Z40	X41	Y41	Z41	X42	Y42	Z42	X43	Y43	Z43	X44	Y44	Z44	X45	Y45	Z45	X46	Y46	Z46	X47	Y47	Z47	X48	Y48	Z48	X49	Y49	Z49	X50	Y50	Z50	
1	0.0050	478.971166	1339.057432	-115.666966	471.235619	1323.944280	-419.113663	422.507278	1358.381665	-263.013229	444.955036	1220.567740	-260.407839	520.582985	1099.443203	-14.971786	692.806071	910.763333	-58.497320	467.943614	1051.671704	-508.183914	672.182939	909.730013	-446.257548	-26.758929	1119.263398	-233.919930	103.242343	1130.976766	-383.830530	128.156915	1122.408445	-92.682259	153.590744	1079.915044	-366.891891	173.545990	1070.796277	-115.850409	6.656192	1149.843775	-174.956840	-5.466651	1159.339287	-281.968454	106.850116	977.157114	-48.340771	84.730825	1006.995445	-433.090778	187.772837	860.383565	-54.069400	253.145492	802.815152	-61.789177	276.005973	717.041336	-70.144824	279.479246	819.144027	-81.750572	308.692489	623.415549	-100.319451	290.785977	607.082056	-195.771699	236.176100	548.471990	-67.641357	206.558043	464.388821	-80.382326	140.108422	407.185877	-78.885797	227.730495	453.456765	-112.029757	80.261082	326.290630	-78.896495	85.264276	337.193238	-157.242747	-8.469124	316.221779	-116.798289	239.139485	220.605171	-127.866001	158.518301	232.056837	-60.149369	213.232479	950.661448	-426.689837	298.012609	947.433591	-418.457663	309.697808	981.134813	-405.272692	374.141663	898.690824	-414.488798	456.259549	843.471237	-394.516857	470.689941	830.379255	-295.584895	340.193306	500.216440	-409.190110	354.277775	508.772197	-336.173128	265.045030	465.977179	-373.049948	432.349975	415.847379	-433.287137	427.715638	749.514360	-418.039223	421.641034	662.830478	-410.281359	371.669474	589.387809	-412.023170	444.568674	657.055495	-378.797679	524.432187	429.554992	-364.312852	-65.341260	851.643335	-238.849205	20.987284	84.611638	-442.139197	21.186863	83.906386	-43.690938	
2	0.0100	478.982255	1339.020094	-115.637822	471.249336	1323.929019	-419.085862	422.543705	1358.408788	-262.943073	444.918575	1220.557986	-260.397638	520.570432	1099.413227	-14.942592	692.792247	910.782414	-58.524527	467.937947	1051.685885	-508.148759	672.194191	909.720436	-446.231762	-26.750949	1119.254516	-233.931747	103.202773	1130.975888	-383.849375	128.154764	1122.437020	-92.673042	153.584946	1079.927425	-366.904241	173.584554	1070.829451	-115.823136	6.670400	1149.845860	-174.956877	-5.452303	1159.234305	-281.943699	106.876221	977.154595	-48.343459	84.755583	1006.992731	-433.100078	187.835620	860.392160	-54.070634	253.174311	802.835043	-61.766994	276.066090	717.067390	-70.132270	279.554760	819.143687	-81.737073	308.740616	623.438661	-100.288785	290.786963	607.095874	-195.807356	236.226673	548.500115	-67.621614	206.593033	464.419973	-80.364918	140.163954	407.186958	-78.879898	227.749288	453.471871	-112.037130	80.278425	326.354955	-78.880687	85.314549	337.234562	-157.239472	-8.454563	316.279730	-116.775275	239.156929	220.628454	-127.834306	158.505310	232.058459	-60.142702	213.239915	950.618296	-426.681090	298.030617	947.367909	-418.429224	309.726378	981.076852	-405.261169	374.153848	898.641459	-414.465169	456.243949	843.440839	-394.497682	470.730075	830.350206	-295.539312	340.197245	500.185868	-409.184611	354.300391	508.743175	-336.131344	265.048800	465.922063	-373.042907	432.354259	415.824542	-433.272093	427.716513	749.473596	-418.025989	421.641685	662.794242	-410.282945	371.657423	589.358059	-412.020848	444.580902	656.984699	-378.758390	524.448638	429.557480	-364.320539	-65.334627	851.639199	-238.855632	21.000270	84.635958	-442.136869	21.220726	83.888165	-43.682185	
3	0.0150	478.964215	1339.010255	-115.608183	471.250577	1323.946708	-419.068049	422.570423	1358.428577	-262.906107	444.890958	1220.534553	-260.374754	520.565950	1099.412899	-14.917415	692.799126	910.777992	-58.492954	467.918288	1051.691628	-508.132592	672.190741	909.719890	-446.217283	-26.744505	1119.246393	-233.938632	103.211376	1130.993139	-383.890514	128.147165	1122.450250	-92.651726	153.576479	1079.940807	-366.891205	173.568466	1070.852553	-115.785826	6.661210	1149.850529	-174.972318	-5.436566	1159.232741	-281.914659	106.876157	977.168292	-48.331028	84.782808	1006.974086	-433.097787	187.851495	860.392633	-54.076886	253.201020	802.844354	-61.763142	276.096015	717.090506	-70.108899	279.578202	819.166789	-81.733371	308.791689	623.454432	-100.274691	290.822234	607.106990	-195.800462	236.265985	548.504311	-67.616486	206.617520	464.436825	-80.343988	140.180433	407.230044	-78.872814	227.762898	453.487829	-112.054507	80.316414	326.383752	-78.854187	85.352834	337.252069	-157.247269	-8.410730	316.320271	-116.769368	239.152777	220.635539	-127.818997	158.499050	232.088225	-60.152397	213.270181	950.591200	-426.658424	298.048139	947.337248	-418.412461	309.738321	981.036877	-405.251534	374.167769	898.593445	-414.430345	456.246682	843.403004	-394.472203	470.735437	830.299912	-295.492288	340.194748	500.131886	-409.160625	354.311464	508.712591	-336.095848	265.052699	465.870216	-373.052750	432.367889	415.804943	-433.282350	427.710614	749.434888	-418.009623	421.622306	662.759437	-410.265104	371.636617	589.326037	-412.020180	444.571328	656.940814	-378.758396	524.451644	429.543860	-364.308035	-65.330873	851.636347	-238.837206	21.012612	84.623315	-442.132164	21.239585	83.885631	-43.671786	
4	0.0200	478.817658	1339.802454	-115.429894	471.269060	1323.941306	-419.052917	422.517775	1358.097156	-262.735996	444.847415	1220.530157	-260.374668	520.393151	1099.722261	-14.730414	692.819924	910.781966	-58.487696	468.082557	1051.544277	-507.694963	672.187760	909.733870	-446.242843	-25.345122	1120.130024	-231.760991	103.214426	1131.002243	-383.875174	128.145731	1122.476171	-92.640169	153.574965	1079.962278	-366.889741	173.475861	1070.701476	-115.720612	6.660616	1149.853271	-174.995960	-5.149647	1159.161898	-281.903940	107.148252	977.101251	-48.100588	84.800534	1006.962578	-433.100023	188.029366	860.608491	-53.638799	253.214623	802.857770	-61.736128	276.115689	717.114262	-70.104281	279.318314	819.225453	-81.936909	309.105602	623.237924	-100.138592	291.054866	606.961753	-195.776869	236.287106	548.535134	-67.601500	206.826384	464.405202	-80.116786	140.380386	407.118550	-78.910537	227.798361	453.521898	-112.021208	80.323320	326.336733	-78.541840	85.383652	337.266564	-157.233983	-8.399022	316.398550	-116.768579	239.173960	220.643495	-127.803266	158.503784	232.104034	-60.149033	213.309314	950.556809	-426.640879	298.081250	947.314674	-418.397375	309.567116	981.433915	-405.270130	374.167549	898.391943	-414.477103	456.225808	843.260797	-394.444859	470.748346	830.266505	-295.470805	339.893171	500.623899	-409.456146	354.676505	508.171564	-335.511436	265.309392	465.681739	-372.790780	432.358903	415.785595	-433.275982	427.712943	749.410751	-417.996041	421.596604	662.636833	-410.332479	371.630112	589.295432	-412.005481	444.778129	656.712936	-378.652311	524.450278	429.554595	-364.325927	-65.337246	851.646406	-238.837589	21.012070	84.625370	-442.122647	21.246099	83.889670	-43.661786	
5	0.0250	478.779456	1339.795927	-115.445777	471.160771	1324.194481	-419.021717	422.772825	1358.105035	-262.430156	444.639919	1221.516530	-260.344518	520.282978	1099.892170	-14.871383	692.667526	910.952890	-58.334231	467.888552	1051.775986	-507.570047	672.023122	909.780179	-446.346458	-25.343281	1120.130619	-231.771563	103.209973	1131.238223	-383.924702	127.870225	1122.795912	-93.216441	153.393661	1080.403098	-366.885545	173.306574	1070.875218	-115.856576	6.725602	1149.839241	-175.043394	-4.972897	1159.033697	-282.069444	106.885153	977.418043	-48.134459	84.934370	1007.037584	-432.808198	187.847527	860.966972	-53.606592	253.078098	803.125718	-61.682769	275.922178	717.494866	-70.068336	279.223583	819.542157	-81.847524	308.797876	623.658352	-100.122910	291.022597	607.184380	-195.822618	236.099112	548.855856	-67.530997	206.722595	464.798515	-80.001051	140.132052	407.431954	-78.775294	227.703976	453.885913	-112.078920	80.192493	326.664365	-78.361601	84.755344	337.774027	-157.151366	-8.428589	316.483122	-116.816351	239.114643	220.958169	-127.634367	158.351845	232.339530	-60.075866	213.293981	950.680845	-426.582539	298.032456	947.487937	-418.170491	309.634378	981.411407	-405.348365	373.919763	898.574303	-414.466388	456.196208	843.224266	-394.583109	470.487833	830.719954	-295.449062	339.892338	500.544021	-409.432522	354.626224	508.503576	-335.295240	265.338870	465.643240	-372.738208	432.100911	416.129006	-433.553254	427.535283	749.557271	-418.150632	421.355622	662.992777	-410.391292	371.419587	589.544684	-411.939161	444.680686	656.934412	-378.545510	524.271182	429.748755	-364.460619	-65.308773	851.650527	-238.851489	20.864128	84.795645	-442.199247	21.133446	84.035588	-43.720872	
